:SAMPLES-PER-SECOND 30
:FULLY-SPECIFIED
:DEGREES
556
root  -12.756 36.8317 -3.11758 -38.201 -77.5585 28.783
RightUpLeg  -10.1177 -14.7062 -17.0417
RightLeg  69.2146 1.91065 4.82468
RightFoot  -9.03405 -0.366876 14.8513
RightToes  -4.65663e-010 0 -3.6325e-017
Spine  15.0769 2.38697 -4.50485
Spine1  1.52749 2.70388 -5.41162
HEad  -28.7313 11.5063 2.74009
LeftShoulder1  -0.448523 4.62389 -33.8883
LeftArm  1.57223 -14.1066 -39.1387
LeftForeArm  35.5262 -7.9669 -10.4863
LeftHand  -0.0596942 8.51042 -0.379803
RightShoulder  -0.793507 -5.6418 30.466
RightArm  25.4664 -12.1851 44.3027
RightForeArm  17.1192 16.7004 5.85723
RightHand  0.0452675 3.08058 0.37708
LeftUpLeg  -19.5325 0.578423 -1.51451
LeftLeg  34.2574 -9.79667 -6.74987
LeftFoot  -4.13221 -0.0130429 0.599901
LeftToes  8.74931e-010 -1.05764e-010 1.2659e-011
557
root  -13.4817 37.0343 -2.98479 -42.1328 -77.1674 32.4182
RightUpLeg  -11.1052 -12.6776 -20.6395
RightLeg  63.745 1.78863 3.4175
RightFoot  -10.9826 -0.112762 12.4492
RightToes  -4.65663e-010 0 -3.6325e-017
Spine  14.7689 2.02227 -3.30677
Spine1  1.26448 2.17986 -4.18104
HEad  -27.0772 14.4078 1.73514
LeftShoulder1  -0.451435 4.63818 -33.6481
LeftArm  15.9857 -13.6261 -42.1949
LeftForeArm  24.3809 -15.1039 -8.8845
LeftHand  -0.00703676 8.1052 1.39693
RightShoulder  -0.81329 -5.70086 30.3831
RightArm  23.1263 -12.2547 40.7865
RightForeArm  18.7711 16.9587 5.32811
RightHand  0.12077 3.55608 1.32292
LeftUpLeg  -17.3494 0.260974 -2.542
LeftLeg  33.4159 -9.2096 -6.12871
LeftFoot  -5.04225 -0.0253467 1.01341
LeftToes  8.74931e-010 -1.05764e-010 1.2659e-011
558
root  -14.2709 37.3272 -2.77948 -45.4998 -77.0627 34.6696
RightUpLeg  -9.09092 -10.5037 -23.9267
RightLeg  54.3094 0.816377 0.903
RightFoot  -12.7691 0.0609857 11.7335
RightToes  -4.65663e-010 0 -3.6325e-017
Spine  14.0494 1.59231 -1.41752
Spine1  1.25674 1.40112 -1.73534
HEad  -24.149 17.2414 0.312517
LeftShoulder1  -0.47324 4.70203 -33.3327
LeftArm  27.9017 -11.017 -45.4348
LeftForeArm  12.794 -22.2337 -5.01391
LeftHand  0.021892 8.60489 2.39272
RightShoulder  -0.77546 -5.63685 29.6858
RightArm  20.6491 -12.4745 36.2302
RightForeArm  16.2397 19.0964 4.42332
RightHand  0.0983676 3.10626 1.19518
LeftUpLeg  -13.8304 0.404376 -3.18104
LeftLeg  31.9743 -9.03595 -5.67976
LeftFoot  -5.88408 -0.0340205 1.45685
LeftToes  8.74931e-010 -1.05764e-010 1.2659e-011
559
root  -15.0599 37.6143 -2.54123 -50.4557 -77.3258 38.511
RightUpLeg  -6.36912 -7.92376 -26.5233
RightLeg  43.6386 -1.07165 -1.41188
RightFoot  -12.6555 0.0454842 11.3456
RightToes  -4.65663e-010 0 -3.6325e-017
Spine  11.383 1.55046 0.279853
Spine1  3.34972 0.576194 2.7104
HEad  -21.6508 20.1111 -2.51723
LeftShoulder1  -0.519896 4.8103 -33.6298
LeftArm  27.8174 -8.79289 -48.0422
LeftForeArm  13.5087 -27.2307 -5.01309
LeftHand  0.0155393 7.57919 2.81303
RightShoulder  -0.671352 -5.44576 27.8907
RightArm  15.2611 -11.8997 31.7404
RightForeArm  13.1916 22.4781 4.19409
RightHand  -0.0914422 4.13311 -1.42503
LeftUpLeg  -10.1436 0.797846 -3.8148
LeftLeg  30.2946 -8.6429 -5.07475
LeftFoot  -6.75911 -0.0291602 1.74396
LeftToes  8.74931e-010 -1.05764e-010 1.2659e-011
560
root  -15.8677 37.8603 -2.31341 -58.485 -77.4947 45.9064
RightUpLeg  -4.07333 -4.37629 -28.6084
RightLeg  33.3127 -0.820339 -0.927115
RightFoot  -11.87 -0.0315152 11.441
RightToes  -4.65663e-010 0 -3.6325e-017
Spine  8.65892 1.43225 2.83005
Spine1  4.30625 -0.0785472 5.46031
HEad  -19.0366 22.5282 -3.93706
LeftShoulder1  -0.447262 4.65973 -32.551
LeftArm  25.9351 -5.97768 -50.2661
LeftForeArm  17.2169 -31.6748 -5.98733
LeftHand  -0.00818891 6.77231 1.87983
RightShoulder  -0.626906 -5.38754 26.5769
RightArm  9.1147 -10.9224 27.2374
RightForeArm  12.7153 27.1458 5.15283
RightHand  -0.150163 3.85334 -2.14272
LeftUpLeg  -6.76237 1.12927 -5.03065
LeftLeg  28.3091 -7.66475 -4.10417
LeftFoot  -7.58086 -0.017329 1.92266
LeftToes  8.74931e-010 -1.05764e-010 1.2659e-011
